<svg fill="none" viewBox="0 0 20 20" xmlns="http://www.w3.org/2000/svg">
  <path fill="#dc2626" d="M4 0h12a4 4 0 0 1 4 4v12a4 4 0 0 1-4 4H4a4 4 0 0 1-4-4V4a4 4 0 0 1 4-4z"/>
  <path fill="#ffffff" d="M4.5 4.5h3a.75.75 0 0 0 0-1.5H3.75a.75.75 0 0 0-.75.75V7.5a.75.75 0 0 0 1.5 0v-3zm11 0v3a.75.75 0 0 0 1.5 0V3.75a.75.75 0 0 0-.75-.75H12.5a.75.75 0 0 0 0 1.5h3zm0 11h-3a.75.75 0 0 0 0 1.5h3.75a.75.75 0 0 0 .75-.75V12.5a.75.75 0 0 0-1.5 0v3zm-11 0v-3a.75.75 0 0 0-1.5 0v3.75a.75.75 0 0 0 .75.75H7.5a.75.75 0 0 0 0-1.5h-3z"/>
</svg>
